<?xml version="1.0" standalone="no"?>
<!DOCTYPE svg PUBLIC "-//W3C//DTD SVG 20010904//EN"
 "http://www.w3.org/TR/2001/REC-SVG-20010904/DTD/svg10.dtd">
<svg version="1.0" xmlns="http://www.w3.org/2000/svg"
 width="270.000000pt" height="399.000000pt" viewBox="0 0 270.000000 399.000000"
 preserveAspectRatio="xMidYMid meet">

<g transform="translate(0.000000,399.000000) scale(0.100000,-0.100000)"
fill="#000000" stroke="none">
<path d="M1285 3867 c-80 -27 -200 -141 -221 -211 -3 -12 -16 -32 -28 -45 -11
-13 -16 -21 -9 -18 7 5 9 0 6 -14 -4 -15 -8 -17 -14 -8 -4 7 -7 -37 -7 -97 0
-76 -4 -122 -16 -154 -8 -25 -16 -62 -16 -83 0 -21 -5 -47 -11 -58 -7 -15 -6
-42 7 -102 17 -84 14 -168 -6 -193 -7 -7 -33 -23 -58 -36 -33 -16 -42 -24 -29
-26 10 -2 31 1 46 6 l28 10 -10 -39 c-6 -27 -6 -67 1 -125 7 -54 8 -93 2 -109
-5 -14 -7 -31 -4 -39 3 -8 -12 -27 -38 -46 -24 -19 -47 -37 -51 -40 -5 -4 1
-10 13 -13 12 -3 19 -3 16 0 -5 5 66 43 79 43 2 0 14 -53 15 -68 0 -4 -3 -7
-7 -7 -5 0 -14 -4 -22 -9 -9 -6 -12 -5 -8 1 4 6 -4 11 -18 11 -13 0 -23 -5
-22 -11 1 -6 -11 -15 -28 -21 -16 -6 -36 -18 -43 -26 -12 -13 -13 -13 -8 3 3
9 2 17 -3 17 -14 0 -31 -26 -23 -35 4 -5 1 -5 -6 -1 -8 5 -10 16 -6 28 4 15 3
18 -6 13 -8 -5 -11 -4 -6 3 3 6 16 9 29 7 21 -4 21 -4 3 10 -11 8 -14 15 -7
15 7 0 10 4 7 9 -11 17 5 39 32 47 15 4 30 7 33 6 3 0 4 10 1 23 -2 15 0 25 8
25 6 0 19 8 28 17 13 12 14 17 4 21 -9 3 -10 8 -2 17 13 16 30 105 19 105 -4
0 -16 -13 -26 -30 -21 -36 -26 -37 -50 -6 -16 20 -20 21 -32 8 -12 -12 -15
-12 -22 1 -10 18 -1 77 12 77 5 0 8 3 7 8 -1 4 6 22 16 40 25 49 14 49 -13 1
-32 -57 -51 -133 -51 -209 0 -71 -8 -112 -20 -105 -11 7 -11 -81 0 -109 14
-39 -8 -282 -32 -341 -39 -98 -141 -295 -153 -295 -6 0 -21 -23 -34 -52 -17
-38 -21 -61 -16 -90 11 -61 -49 -282 -86 -324 -22 -23 -25 -54 -6 -54 37 0 34
-23 -16 -108 -27 -48 -56 -94 -63 -103 -10 -11 -12 -36 -8 -95 l6 -79 -93
-170 c-51 -93 -98 -174 -106 -178 -7 -4 -13 -19 -13 -32 0 -16 -6 -25 -15 -25
-8 0 -15 -7 -15 -15 0 -9 -7 -18 -16 -22 -9 -3 -24 -26 -35 -50 -10 -24 -25
-46 -34 -49 -12 -5 -15 -29 -15 -135 l0 -129 36 0 c34 0 37 3 70 72 65 135 84
168 93 168 5 0 15 17 22 37 7 21 20 51 30 68 11 16 19 39 19 50 0 11 39 98 87
193 77 152 91 174 122 190 25 11 37 25 39 42 2 14 10 32 16 40 17 20 36 77 36
109 0 14 8 46 18 71 l17 45 6 -50 c4 -30 1 -60 -6 -75 -6 -14 -17 -56 -25 -95
-7 -38 -18 -77 -25 -85 -23 -28 -53 -94 -70 -160 -10 -36 -37 -108 -61 -160
-55 -124 -114 -348 -114 -436 l0 -24 1091 0 1090 0 -45 55 c-48 60 -82 135
-72 161 9 23 32 3 48 -42 6 -19 16 -34 20 -34 23 0 -7 128 -45 186 -13 21 -28
57 -32 79 -7 42 -47 161 -67 198 -6 12 -20 32 -32 43 -12 12 -38 52 -59 89
l-37 68 10 81 c5 44 10 110 10 146 0 58 2 66 23 75 20 9 22 18 24 85 1 41 9
116 17 165 8 50 19 127 24 173 6 51 16 90 26 101 25 27 20 58 -11 73 -27 13
-28 16 -30 103 -6 268 -9 325 -19 335 -8 8 -10 -6 -7 -47 l3 -58 -19 45 c-11
25 -20 56 -20 69 -1 20 1 21 14 11 8 -7 15 -9 15 -6 0 18 40 -18 54 -49 14
-29 15 -42 7 -67 -6 -17 -9 -34 -6 -37 3 -3 8 4 11 16 3 12 12 24 19 27 9 3
11 18 7 52 -6 55 6 53 33 -5 10 -22 21 -38 25 -36 4 3 15 -6 24 -20 15 -23 80
-50 97 -40 4 3 10 -3 12 -12 4 -16 5 -16 6 -1 1 17 -86 85 -102 80 -12 -4 -44
78 -50 128 -5 44 -5 45 9 15 7 -16 13 -41 14 -55 0 -14 5 -32 11 -40 8 -11 9
-5 5 25 -5 37 -4 36 14 -15 11 -30 20 -56 20 -56 0 -1 6 -4 14 -7 10 -4 12 0
9 14 -6 23 -2 23 42 5 43 -18 38 0 -8 29 -17 11 -36 34 -42 50 -5 17 -12 32
-16 35 -3 3 -9 30 -12 60 -6 51 -5 53 8 30 13 -23 14 -23 15 -5 0 11 -7 31
-16 43 -9 13 -13 26 -10 29 3 3 15 -15 27 -42 16 -35 20 -59 15 -89 -5 -33 -4
-37 5 -22 6 10 9 42 7 73 -4 51 4 62 15 18 3 -15 5 -12 6 9 1 26 3 27 19 15
16 -13 16 -13 0 7 -10 11 -18 24 -18 28 0 20 -85 136 -104 142 -11 4 -42 6
-68 5 -61 -2 -87 28 -89 103 -1 40 -3 45 -8 22 -5 -27 -7 -28 -20 -12 -12 14
-11 19 7 39 16 17 21 35 20 77 0 48 -4 59 -34 92 -19 21 -34 45 -34 53 0 8
-11 22 -25 31 -14 9 -25 23 -25 31 0 20 -66 82 -105 98 -56 24 -197 -6 -243
-53 -22 -21 -23 -24 -8 -41 9 -10 16 -21 16 -26 0 -5 -9 1 -20 13 -13 14 -17
27 -12 41 8 23 71 68 107 77 14 3 25 8 25 11 0 27 -39 124 -76 188 -52 91 -74
165 -74 245 0 56 -16 131 -30 140 -4 3 -26 38 -47 78 -42 76 -73 106 -158 149
-59 31 -151 39 -210 20z m-70 -137 c-3 -5 -1 -10 4 -10 6 0 11 -8 11 -17 -1
-17 -1 -17 -11 0 -5 9 -17 17 -25 17 -8 0 -12 5 -9 10 3 6 13 10 21 10 8 0 12
-4 9 -10z m90 -40 c3 -5 1 -10 -4 -10 -6 0 -11 5 -11 10 0 6 2 10 4 10 3 0 8
-4 11 -10z m160 -32 c2 -7 -2 -42 -9 -78 l-13 -65 1 63 c1 52 -2 66 -18 78
-19 13 -19 14 7 14 15 0 30 -6 32 -12z m65 2 c8 -5 12 -11 9 -14 -3 -3 -14 1
-25 9 -21 16 -8 20 16 5z m-192 -11 c34 -2 35 -2 7 -6 -30 -5 -85 -53 -85 -75
0 -6 -3 -9 -6 -5 -4 3 3 21 14 39 l21 33 -39 0 c-21 0 -36 -4 -32 -9 3 -5 -2
-7 -10 -3 -13 5 -15 -2 -12 -36 4 -39 3 -40 -7 -14 -6 15 -15 27 -20 27 -16 0
-4 24 18 37 24 13 80 22 101 16 8 -1 30 -4 50 -4z m248 -3 c10 -8 17 -17 14
-19 -3 -3 -16 3 -29 14 -27 22 -15 26 15 5z m-436 -19 c0 -2 -10 -12 -22 -23
l-23 -19 19 23 c18 21 26 27 26 19z m110 -11 c0 -2 -8 -10 -17 -17 -16 -13
-17 -12 -4 4 13 16 21 21 21 13z m-209 -57 c-5 -13 -10 -19 -10 -12 -1 15 10
45 15 40 3 -2 0 -15 -5 -28z m279 1 c0 -5 -8 -10 -17 -10 -15 0 -16 2 -3 10
19 12 20 12 20 0z m25 -20 c-3 -5 -16 -15 -28 -21 -21 -10 -21 -9 2 10 25 23
36 27 26 11z m-75 -28 c-6 -2 -7 -9 -4 -14 4 -7 2 -8 -5 -4 -6 4 -9 12 -6 17
4 5 1 9 -4 9 -6 0 -11 5 -11 10 0 6 8 5 20 -2 11 -7 16 -14 10 -16z m-105 -2
c3 -5 1 -10 -4 -10 -6 0 -11 5 -11 10 0 6 2 10 4 10 3 0 8 -4 11 -10z m35 -20
c0 -5 -5 -10 -11 -10 -5 0 -7 5 -4 10 3 6 8 10 11 10 2 0 4 -4 4 -10z m35 0
c3 -5 1 -10 -4 -10 -6 0 -11 5 -11 10 0 6 2 10 4 10 3 0 8 -4 11 -10z m31 -67
c4 -16 6 -36 5 -45 -1 -10 3 -18 8 -18 6 0 11 -4 11 -9 0 -5 -16 -9 -35 -9
-32 0 -35 3 -35 28 0 35 16 80 29 80 5 0 12 -12 17 -27z m129 -33 c3 -5 -3
-31 -14 -56 -12 -26 -21 -53 -21 -61 0 -11 -7 -13 -32 -6 -18 4 -52 8 -75 8
-38 0 -44 3 -53 28 -5 16 -13 26 -18 23 -15 -9 -47 33 -35 45 19 19 48 5 53
-25 8 -47 51 -59 100 -26 13 8 13 13 -2 39 -16 29 -16 30 5 34 42 8 86 7 92
-3z m-107 -147 c-10 -2 -26 -2 -35 0 -10 3 -2 5 17 5 19 0 27 -2 18 -5z m54
-15 c-9 -9 -15 -9 -24 0 -9 9 -7 12 12 12 19 0 21 -3 12 -12z m-57 -38 c-3 -5
-13 -6 -22 -3 -13 5 -15 2 -10 -12 6 -15 5 -16 -8 -5 -20 16 -10 30 21 30 14
0 23 -4 19 -10z m-108 -102 c-3 -7 -5 -2 -5 12 0 14 2 19 5 13 2 -7 2 -19 0
-25z m-114 -60 c9 -31 2 -33 -11 -3 -6 14 -8 25 -3 25 5 0 11 -10 14 -22z m3
-113 c2 -21 0 -22 -12 -10 -17 17 -18 35 -1 35 6 0 13 -11 13 -25z m939 0 c14
-13 25 -33 25 -45 0 -11 5 -20 11 -20 7 0 10 12 7 30 -4 24 -2 27 9 18 20 -16
12 -49 -14 -59 -20 -7 -23 -5 -23 14 0 23 -41 69 -70 80 -10 3 -7 6 8 6 13 1
34 -10 47 -24z m-399 -38 c1 -14 7 -33 14 -42 10 -13 10 -18 -3 -33 -8 -9 -18
-38 -22 -65 -4 -26 -11 -50 -16 -53 -5 -3 -5 10 -1 28 4 18 7 70 7 116 0 50 4
81 10 79 6 -2 10 -16 11 -30z m358 24 c4 -5 -3 -7 -14 -4 -23 6 -26 13 -6 13
8 0 17 -4 20 -9z m-48 -22 c3 -6 17 -9 30 -6 14 2 25 -1 28 -9 3 -8 12 -14 21
-14 8 0 15 -4 15 -10 0 -14 -6 -13 -42 6 -25 13 -36 14 -56 4 -20 -9 -27 -8
-33 2 -6 9 -9 6 -9 -10 0 -13 4 -20 10 -17 6 3 10 2 10 -3 0 -4 8 -17 19 -28
10 -11 24 -31 31 -45 8 -15 -4 -7 -30 21 -24 25 -40 37 -37 28 3 -10 2 -20 -2
-23 -12 -7 -19 82 -8 101 9 17 43 19 53 3z m-76 -20 c-7 -11 -14 -19 -16 -16
-7 7 7 37 17 37 6 0 5 -9 -1 -21z m-50 -4 c0 -8 -4 -15 -10 -15 -5 0 -7 7 -4
15 4 8 8 15 10 15 2 0 4 -7 4 -15z m-234 -46 c-4 -28 -15 -77 -26 -109 -11
-33 -21 -85 -21 -117 l-1 -58 -8 54 c-7 44 -4 66 16 124 13 39 24 83 24 98 0
29 9 59 17 59 3 0 2 -23 -1 -51z m-183 25 c-5 -13 0 -14 31 -9 l36 7 0 -86 c0
-80 -2 -87 -22 -95 -13 -5 -41 -26 -62 -46 -39 -35 -64 -44 -170 -61 -25 -3
-35 -9 -27 -13 7 -5 24 -6 38 -3 23 4 25 3 14 -9 -14 -14 -61 -20 -61 -7 0 4
-6 5 -14 2 -8 -3 -12 -12 -10 -19 3 -7 -8 -19 -25 -28 -25 -13 -31 -13 -31 -2
0 8 -5 17 -10 20 -7 4 -9 -2 -4 -19 4 -16 2 -26 -5 -26 -6 0 -11 17 -12 38 0
20 -2 48 -4 62 -2 21 47 161 74 210 5 9 12 30 15 47 l7 32 37 -19 c20 -11 51
-23 69 -26 31 -6 110 13 99 24 -7 6 23 42 35 42 5 0 6 -7 2 -16z m402 -23 c-3
-6 -11 -11 -16 -11 -5 0 -4 6 3 14 14 16 24 13 13 -3z m194 -21 c29 -25 25
-31 -9 -13 -14 7 -20 13 -15 13 6 0 -1 10 -15 21 -16 13 -18 17 -5 10 11 -6
31 -20 44 -31z m55 -8 c3 -9 9 -24 12 -32 3 -8 -6 -2 -20 14 -14 16 -26 33
-26 37 0 14 28 -2 34 -19z m72 -31 c14 -12 14 -16 4 -19 -8 -3 -16 0 -18 7 -2
6 -8 8 -14 5 -13 -8 -28 14 -28 40 0 20 0 20 20 0 10 -10 27 -26 36 -33z m77
4 c-3 -9 -8 -14 -10 -11 -3 3 -2 9 2 15 9 16 15 13 8 -4z m-367 -24 c0 -11 -3
-18 -7 -15 -4 2 -9 -3 -13 -11 -3 -8 -10 -15 -16 -15 -6 0 -1 14 12 30 12 17
22 30 23 30 0 0 1 -9 1 -19z m-842 -26 c5 -22 4 -26 -4 -15 -5 8 -10 24 -10
34 0 26 6 18 14 -19z m1052 -2 c-4 -4 -11 -1 -16 7 -16 25 -11 35 7 17 9 -9
13 -20 9 -24z m-152 -37 c-10 -8 -21 -12 -24 -10 -5 6 21 24 34 24 6 0 1 -6
-10 -14z m-217 -18 c-3 -8 -6 -5 -6 6 -1 11 2 17 5 13 3 -3 4 -12 1 -19z m328
-9 c17 -10 27 -19 24 -19 -11 0 -99 41 -99 46 0 9 43 -7 75 -27z m-1018 -1
c-3 -8 -6 -5 -6 6 -1 11 2 17 5 13 3 -3 4 -12 1 -19z m663 12 c0 -5 -2 -10 -4
-10 -3 0 -8 5 -11 10 -3 6 -1 10 4 10 6 0 11 -4 11 -10z m-602 -45 c-31 -42
-48 -55 -48 -37 0 10 65 82 74 82 4 0 -8 -20 -26 -45z m631 -24 c0 -14 -1 -14
-6 -1 -3 8 -10 24 -15 35 -9 20 -9 20 6 1 9 -11 16 -27 15 -35z m-212 7 c-3
-7 -5 -2 -5 12 0 14 2 19 5 13 2 -7 2 -19 0 -25z m130 -20 c-2 -13 -4 -5 -4
17 -1 22 1 32 4 23 2 -10 2 -28 0 -40z m113 37 c0 -8 -2 -15 -4 -15 -2 0 -6 7
-10 15 -3 8 -1 15 4 15 6 0 10 -7 10 -15z m395 3 c40 -18 29 -25 -20 -14 -25
6 -45 14 -45 18 0 12 35 10 65 -4z m-704 -21 c-6 -8 -8 -16 -5 -20 3 -3 -4
-10 -15 -17 -12 -6 -21 -8 -21 -5 0 12 33 55 42 55 7 0 6 -5 -1 -13z m96 -19
c-3 -8 -6 -5 -6 6 -1 11 2 17 5 13 3 -3 4 -12 1 -19z m200 -30 c-3 -7 -5 -2
-5 12 0 14 2 19 5 13 2 -7 2 -19 0 -25z m-387 8 c0 -2 -8 -10 -17 -17 -16 -13
-17 -12 -4 4 13 16 21 21 21 13z m379 -43 c-1 -10 -5 -31 -9 -48 -7 -25 -8
-23 -7 17 1 27 5 48 10 48 4 0 6 -8 6 -17z m-149 -23 c0 -5 -2 -10 -4 -10 -3
0 -8 5 -11 10 -3 6 -1 10 4 10 6 0 11 -4 11 -10z m230 -9 c-8 -16 -6 -21 10
-26 11 -3 20 -11 20 -18 0 -8 3 -8 11 0 6 6 19 8 30 6 32 -9 21 -21 -16 -20
-45 1 -85 38 -65 62 17 21 23 19 10 -4z m-273 -13 c-3 -8 -6 -5 -6 6 -1 11 2
17 5 13 3 -3 4 -12 1 -19z m944 -10 c11 -21 11 -22 -4 -9 -10 7 -17 17 -17 22
0 15 9 10 21 -13z m-1384 -10 c-3 -8 -6 -5 -6 6 -1 11 2 17 5 13 3 -3 4 -12 1
-19z m218 2 c3 -5 2 -10 -4 -10 -5 0 -13 5 -16 10 -3 6 -2 10 4 10 5 0 13 -4
16 -10z m997 -44 c-3 -5 -9 -1 -13 10 -12 31 -10 39 5 19 8 -11 12 -24 8 -29z
m-1151 10 c-9 -11 -8 -17 4 -30 9 -9 12 -16 6 -16 -18 0 -30 32 -18 51 6 10
13 16 16 14 2 -3 -1 -11 -8 -19z m85 -13 c-18 -33 -21 -26 -6 13 6 15 13 24
16 21 3 -3 -1 -18 -10 -34z m848 21 c3 -9 4 -20 0 -25 -3 -5 6 -13 20 -19 36
-13 32 -20 -8 -20 -34 0 -35 1 -33 40 1 41 10 52 21 24z m-574 -18 c0 -14 -4
-27 -9 -30 -5 -3 -7 -15 -4 -27 5 -19 4 -19 -21 4 -14 13 -26 28 -26 33 0 4 5
3 12 -4 20 -20 32 -13 13 8 -19 21 -7 28 13 8 7 -7 12 -8 12 -2 0 6 -5 15 -12
22 -9 9 -8 12 5 12 11 0 17 -8 17 -24z m-90 4 c0 -5 -5 -10 -11 -10 -5 0 -7 5
-4 10 3 6 8 10 11 10 2 0 4 -4 4 -10z m-413 -62 c-12 -10 -32 -18 -44 -18 -12
0 -24 -6 -26 -12 -4 -9 -6 -8 -6 2 0 18 45 54 58 46 5 -3 12 2 15 11 6 15 8
15 16 3 7 -11 3 -20 -13 -32z m1170 16 c-3 -3 -12 -4 -19 -1 -8 3 -5 6 6 6 11
1 17 -2 13 -5z m-606 -34 c5 0 9 5 9 11 0 5 5 7 11 4 6 -4 8 -14 4 -22 -4 -13
-3 -14 10 -3 8 7 15 19 15 27 0 21 34 11 38 -11 2 -11 12 -27 22 -35 18 -16
37 -61 25 -61 -3 0 -10 11 -15 24 -5 14 -19 30 -32 37 -20 11 -21 10 -11 -2
17 -21 35 -72 23 -64 -6 3 -10 12 -10 19 0 15 -47 42 -57 33 -11 -12 -53 35
-52 57 1 17 2 18 6 4 2 -10 9 -18 14 -18z m870 -7 c14 -16 32 -53 26 -53 -2 0
-20 21 -41 46 -22 26 -31 42 -20 36 11 -6 26 -18 35 -29z m-1041 -37 c24 -28
25 -29 3 -24 -14 4 -24 0 -27 -9 -3 -8 -10 -12 -15 -9 -12 8 -2 46 12 46 7 0
7 4 -1 12 -7 7 -12 17 -12 22 0 6 3 6 8 1 4 -6 18 -23 32 -39z m50 40 c0 -3
-4 -8 -10 -11 -5 -3 -10 -1 -10 4 0 6 5 11 10 11 6 0 10 -2 10 -4z m994 -48
c27 -38 17 -51 -11 -16 -16 18 -37 41 -48 51 -19 17 -19 18 12 3 17 -9 39 -26
47 -38z m-187 10 c-3 -8 -6 -5 -6 6 -1 11 2 17 5 13 3 -3 4 -12 1 -19z m-383
-43 c-23 -35 -29 -25 -7 13 10 18 19 27 21 22 2 -5 -4 -20 -14 -35z m53 23
c-3 -8 -6 -5 -6 6 -1 11 2 17 5 13 3 -3 4 -12 1 -19z m413 2 c6 -11 8 -20 6
-20 -3 0 -10 9 -16 20 -6 11 -8 20 -6 20 3 0 10 -9 16 -20z m-820 -5 c19 -22
8 -25 -12 -3 -10 10 -14 18 -9 18 5 0 14 -7 21 -15z m820 -62 c0 -22 -2 -24
-15 -13 -8 7 -15 24 -15 37 0 22 2 24 15 13 8 -7 15 -24 15 -37z m-460 2 c-13
-14 -26 -23 -28 -20 -3 3 5 16 18 30 13 14 26 23 28 20 3 -3 -5 -16 -18 -30z
m43 -1 c-10 -19 -19 -31 -21 -24 -4 10 24 60 33 60 3 0 -3 -16 -12 -36z m-476
-25 c65 -11 69 -15 64 -70 -1 -12 10 -18 39 -23 46 -7 47 -9 21 -37 -17 -19
-20 -19 -35 -4 -19 19 -22 6 -3 -14 10 -11 10 -14 0 -18 -7 -3 -13 -15 -13
-27 0 -19 4 -21 35 -18 23 3 35 0 35 -8 0 -7 9 -20 19 -29 16 -14 19 -28 16
-76 -1 -33 -8 -61 -14 -63 -6 -2 -9 -8 -5 -13 3 -5 -15 -9 -39 -9 -39 0 -45 3
-49 23 -3 13 -1 34 3 45 5 13 4 22 -1 22 -14 0 -28 -32 -25 -57 1 -18 -4 -22
-24 -21 -55 1 -135 -6 -113 -10 22 -3 29 -16 13 -26 -4 -3 -11 -3 -14 1 -4 3
-30 7 -58 9 -51 3 -93 22 -53 24 10 0 51 4 89 8 l70 7 -24 25 c-13 14 -21 19
-17 13 4 -8 1 -13 -9 -13 -24 0 -55 19 -55 34 0 7 -9 21 -20 31 -11 10 -20 26
-20 37 0 10 -5 18 -11 18 -8 0 -8 4 0 14 9 10 9 15 1 18 -15 5 27 58 45 58 22
0 45 43 47 86 1 44 13 74 30 74 6 0 40 -5 75 -11z m500 -54 c0 -39 5 -71 12
-78 10 -9 11 -6 6 16 -8 31 1 77 14 77 5 0 15 -16 22 -37 18 -56 3 -370 -19
-398 -24 -30 -41 -20 -48 25 -7 45 -62 110 -91 110 -28 0 -73 68 -73 109 0 30
8 65 41 194 11 42 29 50 29 12 0 -14 5 -25 10 -25 6 0 10 9 10 19 0 11 5 23
10 26 6 3 10 -4 10 -17 0 -34 11 -68 21 -68 5 0 9 4 9 9 0 5 5 22 12 38 10 26
13 33 17 48 5 20 8 -5 8 -60z m267 -134 c2 -54 16 -84 16 -35 0 22 3 26 10 14
5 -8 7 -23 4 -32 -3 -10 0 -26 5 -37 8 -13 7 -36 -1 -76 -11 -56 -12 -57 -41
-51 -16 3 -45 6 -64 6 -30 0 -34 2 -23 15 7 9 11 37 8 73 -2 45 0 58 10 55 6
-3 12 -13 13 -22 0 -12 2 -12 9 4 5 12 9 14 9 6 1 -23 16 -1 16 24 1 13 -4 23
-9 22 -12 -2 -9 44 5 82 14 37 31 12 33 -48z m-64 -1 c-6 -11 -12 -20 -14 -20
-2 0 -2 9 1 20 3 11 9 20 15 20 5 0 4 -9 -2 -20z m-1048 -30 c-2 -16 -8 -30
-13 -30 -5 0 -6 7 -4 15 3 8 7 22 10 30 8 25 12 17 7 -15z m65 -6 c-3 -3 -12
-4 -19 -1 -8 3 -5 6 6 6 11 1 17 -2 13 -5z m940 -36 c-3 -8 -6 -5 -6 6 -1 11
2 17 5 13 3 -3 4 -12 1 -19z m-1348 -110 c1 -4 -6 -5 -14 -2 -14 6 -20 -10
-16 -43 1 -6 -3 -14 -9 -18 -9 -6 -12 -2 -14 28 -1 6 -5 15 -11 20 -6 4 -1 10
12 13 12 3 25 16 29 28 7 21 7 21 15 1 4 -11 8 -23 8 -27z m251 -9 c0 -6 -4
-7 -10 -4 -5 3 -10 11 -10 16 0 6 5 7 10 4 6 -3 10 -11 10 -16z m660 17 c0 -3
-4 -8 -10 -11 -5 -3 -10 -1 -10 4 0 6 5 11 10 11 6 0 10 -2 10 -4z m-585 -20
c18 -10 23 -16 14 -21 -7 -5 -17 -2 -23 7 -6 8 -17 13 -23 11 -7 -3 -13 0 -13
6 0 15 12 14 45 -3z m75 -9 c0 14 35 6 50 -12 9 -11 6 -12 -12 -7 -21 5 -22 4
-9 -12 12 -15 12 -17 0 -14 -8 2 -20 11 -27 21 -7 9 -21 17 -30 17 -14 0 -15
2 -2 10 9 6 17 5 22 -3 6 -9 8 -9 8 0z m-226 -4 c-5 -5 -12 -12 -16 -18 -4 -6
-8 -2 -8 8 0 9 7 17 17 17 9 0 12 -3 7 -7z m37 -6 c-1 -4 -1 -14 -1 -22 0 -8
-4 -15 -10 -15 -5 0 -10 12 -10 26 0 14 5 24 11 22 6 -2 10 -7 10 -11z m164
-17 c3 -6 -1 -7 -9 -4 -18 7 -21 14 -7 14 6 0 13 -4 16 -10z m347 -6 c4 -3 5
-11 2 -18 -5 -12 -10 -12 -32 0 -31 16 -46 18 -38 5 4 -5 -3 -7 -13 -4 -11 3
-17 11 -15 18 5 12 75 12 96 -1z m98 -4 c0 -5 -10 -10 -22 -10 -19 0 -20 2 -8
10 19 13 30 13 30 0z m65 0 c3 -6 -4 -9 -19 -8 -13 1 -22 6 -20 10 7 11 32 10
39 -2z m-583 -39 c13 -24 13 -29 2 -24 -8 3 -14 11 -14 19 0 8 -7 14 -15 14
-8 0 -15 5 -15 10 0 21 26 9 42 -19z m28 8 c0 -6 -4 -7 -10 -4 -5 3 -10 11
-10 16 0 6 5 7 10 4 6 -3 10 -11 10 -16z m1158 -25 c46 -19 39 -26 -10 -9 -24
8 -59 19 -78 24 -34 10 -33 10 10 5 25 -4 60 -12 78 -20z m-141 10 c-3 -3 -12
-4 -19 -1 -8 3 -5 6 6 6 11 1 17 -2 13 -5z m-1092 -30 c14 -15 25 -29 25 -31
0 -8 -59 42 -59 50 -1 13 10 7 34 -19z m260 -13 c5 -13 4 -14 -6 -3 -21 20
-34 14 -14 -8 11 -13 15 -25 10 -37 -5 -10 -7 -21 -7 -25 1 -5 -3 -8 -8 -8 -6
0 -10 6 -8 13 4 19 -44 77 -65 77 -10 0 -31 -6 -45 -13 -15 -8 -42 -21 -59
-30 -18 -9 -33 -12 -33 -8 0 4 26 20 58 34 67 31 167 35 177 8z m135 -21 c13
-8 13 -10 -2 -10 -9 0 -20 5 -23 10 -8 13 5 13 25 0z m-58 -32 c-8 -8 -17 -8
-34 0 -22 10 -21 11 12 11 26 1 31 -2 22 -11z m82 4 c-22 -14 -54 -77 -54
-106 0 -21 -3 -27 -10 -20 -23 23 31 134 64 134 7 0 7 -3 0 -8z m129 1 c2 -5
1 -18 -2 -31 -6 -23 -6 -22 -18 7 -9 25 -9 31 2 31 8 0 16 -3 18 -7z m85 -18
c-3 -3 -9 2 -12 12 -6 14 -5 15 5 6 7 -7 10 -15 7 -18z m102 18 c0 -5 -11 -8
-25 -8 -14 0 -25 3 -25 8 0 4 11 7 25 7 14 0 25 -3 25 -7z m-670 -28 c-28 -16
-80 -21 -64 -6 8 8 31 14 79 19 6 1 -1 -5 -15 -13z m547 -7 c-3 -8 -6 -5 -6 6
-1 11 2 17 5 13 3 -3 4 -12 1 -19z m-20 -20 c-3 -8 -6 -5 -6 6 -1 11 2 17 5
13 3 -3 4 -12 1 -19z m-290 -23 c21 4 33 2 33 -5 0 -20 -32 -23 -99 -10 -78
15 -91 20 -91 30 0 4 28 1 62 -7 34 -8 77 -12 95 -8z m755 0 c-2 -14 -6 -25
-8 -25 -2 0 -4 11 -4 25 0 14 4 25 9 25 4 0 6 -11 3 -25z m83 -37 c-7 -28 -9
-30 -15 -13 -4 11 -3 28 2 38 14 27 21 13 13 -25z m-1017 25 c-10 -2 -28 -2
-40 0 -13 2 -5 4 17 4 22 1 32 -1 23 -4z m312 -24 c0 -4 -7 -6 -15 -3 -8 4
-15 10 -15 15 0 4 7 6 15 3 8 -4 15 -10 15 -15z m30 -9 c0 -5 -2 -10 -4 -10
-3 0 -8 5 -11 10 -3 6 -1 10 4 10 6 0 11 -4 11 -10z m-5 -48 c-2 -37 -38 -148
-43 -134 -2 6 4 36 12 66 11 38 13 62 7 79 -8 21 -7 24 8 20 12 -3 17 -13 16
-31z m-409 2 c-4 -9 -9 -15 -11 -12 -3 3 -3 13 1 22 4 9 9 15 11 12 3 -3 3
-13 -1 -22z m-6 -38 c0 -3 -4 -8 -10 -11 -5 -3 -10 -1 -10 4 0 6 5 11 10 11 6
0 10 -2 10 -4z m-12 -71 c-3 -3 -9 2 -12 12 -6 14 -5 15 5 6 7 -7 10 -15 7
-18z m285 -5 c-5 -19 -23 -39 -23 -25 0 9 20 45 24 45 2 0 2 -9 -1 -20z m101
-55 c-4 -8 -8 -15 -10 -15 -2 0 -4 7 -4 15 0 8 4 15 10 15 5 0 7 -7 4 -15z
m-500 -30 c-4 -8 -8 -15 -10 -15 -2 0 -4 7 -4 15 0 8 4 15 10 15 5 0 7 -7 4
-15z m407 -90 l-9 -60 -1 57 c0 31 2 65 6 75 12 30 14 -5 4 -72z m-41 65 c0
-5 -2 -10 -4 -10 -3 0 -8 5 -11 10 -3 6 -1 10 4 10 6 0 11 -4 11 -10z m113
-45 c-3 -9 -8 -14 -10 -11 -3 3 -2 9 2 15 9 16 15 13 8 -4z m607 -68 c0 -2
-12 -14 -27 -28 l-28 -24 24 28 c23 25 31 32 31 24z m-830 -40 c0 -5 -4 -5
-10 -2 -5 3 -10 14 -10 23 0 15 2 15 10 2 5 -8 10 -19 10 -23z m220 -33 c0 -2
-9 0 -20 6 -11 6 -20 13 -20 16 0 2 9 0 20 -6 11 -6 20 -13 20 -16z m-351 -20
c-8 -10 -8 -14 0 -14 6 0 11 -7 11 -16 0 -10 -6 -14 -14 -11 -8 3 -17 1 -19
-6 -2 -7 -2 2 1 18 3 17 5 35 5 42 0 6 6 9 14 6 10 -4 11 -9 2 -19z m-59 -60
c-5 -16 -14 -45 -19 -64 l-11 -35 6 40 c5 41 24 98 30 92 2 -2 -1 -17 -6 -33z
m-48 -372 l-4 -49 57 -2 57 -2 -3 50 c-4 49 -3 51 21 51 l25 0 0 -110 c0 -107
-1 -110 -22 -110 -21 0 -23 5 -23 55 l0 56 -57 -3 -58 -3 3 -52 c3 -50 2 -53
-20 -53 -23 0 -23 2 -23 110 l0 110 25 0 c24 0 25 -3 22 -48z m358 31 c0 -13
-3 -14 -12 -5 -7 7 -22 12 -35 12 -21 0 -23 -5 -23 -46 l0 -47 35 6 c25 4 35
2 35 -7 0 -9 -13 -13 -37 -12 -37 1 -38 0 -40 -34 -1 -19 3 -40 9 -47 13 -17
50 -17 67 0 11 10 13 9 9 -3 -3 -11 -22 -16 -64 -18 l-59 -3 0 111 0 110 58 0
c47 0 57 -3 57 -17z m194 1 c20 -20 20 -55 0 -80 -15 -18 -15 -18 -10 5 6 30
-12 69 -37 77 -28 9 -39 -8 -35 -57 3 -39 6 -44 28 -44 17 0 40 -16 74 -52 46
-50 47 -53 24 -53 -26 0 -68 46 -68 75 0 10 -10 15 -31 15 -31 0 -31 -1 -27
-45 3 -37 0 -45 -14 -45 -15 0 -17 14 -20 110 l-3 110 52 0 c34 0 57 -5 67
-16z m266 1 c60 -31 62 -138 3 -185 -36 -28 -47 -25 -18 6 41 44 30 142 -19
176 -6 4 -28 8 -49 8 -31 0 -40 -5 -58 -32 -34 -56 -4 -158 50 -166 11 -2 21
-8 21 -13 0 -13 -15 -11 -53 5 -85 35 -92 158 -12 204 28 16 101 15 135 -3z
m680 -326 c6 -10 7 -19 2 -19 -5 0 -14 12 -20 26 -14 29 2 24 18 -7z m-992
-44 c-14 -40 -41 -63 -31 -26 3 12 9 21 13 21 5 0 12 15 16 33 4 17 9 27 11
21 2 -6 -2 -28 -9 -49z m287 -5 c3 -5 -1 -10 -10 -10 -9 0 -13 5 -10 10 3 6 8
10 10 10 2 0 7 -4 10 -10z m-647 -18 c2 -7 -2 -10 -12 -6 -9 3 -16 11 -16 16
0 13 23 5 28 -10z m222 -15 c0 -5 -4 -5 -10 -2 -5 3 -10 14 -10 23 0 15 2 15
10 2 5 -8 10 -19 10 -23z m161 20 c-6 -8 -8 -17 -4 -20 3 -4 1 -7 -5 -7 -15 0
-15 13 0 28 16 16 23 15 9 -1z m-466 -37 c3 -5 2 -10 -4 -10 -5 0 -13 5 -16
10 -3 6 -2 10 4 10 5 0 13 -4 16 -10z m731 -5 c-11 -8 -22 -12 -25 -9 -6 6 19
24 34 24 6 -1 1 -7 -9 -15z m-502 -4 c3 -5 -1 -11 -9 -14 -9 -4 -12 -1 -8 9 6
16 10 17 17 5z m271 -11 c0 -7 -6 -15 -12 -17 -8 -3 -13 4 -13 17 0 13 5 20
13 18 6 -3 12 -11 12 -18z m195 -16 c0 -2 -12 -4 -27 -4 -21 0 -24 3 -14 9 13
8 41 5 41 -5z m-183 -46 c-3 -8 -6 -5 -6 6 -1 11 2 17 5 13 3 -3 4 -12 1 -19z"/>
<path d="M1086 2488 c3 -4 9 -8 15 -8 5 0 9 4 9 8 0 5 -7 9 -15 9 -8 0 -12 -4
-9 -9z"/>
<path d="M1495 2040 c3 -5 8 -10 11 -10 2 0 4 5 4 10 0 6 -5 10 -11 10 -5 0
-7 -4 -4 -10z"/>
<path d="M2330 2015 c7 -9 15 -13 17 -11 7 7 -7 26 -19 26 -6 0 -6 -6 2 -15z"/>
</g>
</svg>
